<?xml version="1.0" standalone="no"?>
<!DOCTYPE svg PUBLIC "-//W3C//DTD SVG 20010904//EN"
 "http://www.w3.org/TR/2001/REC-SVG-20010904/DTD/svg10.dtd">
<svg version="1.0" xmlns="http://www.w3.org/2000/svg"
 width="260.000000pt" height="260.000000pt" viewBox="0 0 260.000000 260.000000"
 preserveAspectRatio="xMidYMid meet">
<metadata>
Created by potrace 1.11, written by Peter Selinger 2001-2013
</metadata>
<g transform="translate(0.000000,260.000000) scale(0.100000,-0.100000)"
fill="#000000" stroke="none">
<path d="M1229 2541 c-14 -4 -36 -14 -48 -21 -13 -6 -49 -14 -80 -16 -70 -6
-148 -43 -204 -97 -46 -46 -120 -175 -157 -274 -12 -35 -55 -111 -96 -170 -54
-79 -76 -120 -84 -160 -7 -30 -9 -57 -6 -60 3 -3 8 8 11 23 4 16 12 44 18 62
13 36 148 224 155 217 3 -3 -9 -31 -26 -62 -103 -190 -107 -200 -107 -308 0
-99 1 -101 44 -185 l44 -85 -33 -90 c-67 -187 -73 -255 -31 -337 l17 -34 -111
-38 c-183 -64 -214 -87 -261 -193 -32 -72 -88 -377 -109 -593 -3 -36 -8 -77
-11 -93 -5 -21 -2 -27 13 -27 16 0 21 21 42 198 43 364 70 491 121 560 39 54
55 64 210 127 l131 53 13 -27 c38 -73 118 -113 187 -92 32 10 42 8 96 -19 126
-63 364 -63 482 0 18 9 21 7 27 -14 12 -51 68 -71 135 -51 44 13 214 133 262
184 l47 50 164 -80 c213 -104 258 -151 310 -327 34 -113 75 -407 76 -539 0
-14 6 -23 15 -23 20 0 20 83 -1 260 -34 297 -96 471 -196 555 -39 33 -136 82
-258 130 -52 20 -96 38 -98 39 -1 2 8 41 19 87 28 109 32 276 7 332 -10 21
-13 35 -8 32 4 -3 16 -28 26 -57 14 -42 16 -75 12 -182 -6 -137 1 -142 22 -17
23 138 0 230 -86 344 l-46 61 7 136 c8 157 -3 204 -72 306 -47 69 -90 152
-128 249 -51 128 -107 195 -203 242 -45 22 -72 28 -141 30 -47 1 -98 -1 -112
-6z m-17 -398 c9 -10 25 -45 37 -78 13 -33 30 -68 39 -78 15 -17 132 -81 132
-72 0 2 -22 17 -50 34 -56 34 -73 57 -101 133 -20 56 -11 49 33 -26 15 -25 50
-62 79 -83 39 -28 58 -50 76 -92 14 -31 36 -71 50 -89 21 -29 23 -35 11 -52
-70 -98 -105 -139 -118 -139 -8 -1 -23 13 -32 29 -10 17 -30 36 -45 43 l-28
12 21 21 c14 13 27 18 40 13 10 -3 22 -5 27 -2 34 20 -51 49 -116 39 -24 -4
-54 -16 -66 -27 -25 -23 -21 -40 4 -19 13 11 19 11 33 -3 15 -16 14 -17 -11
-17 -41 0 -93 -25 -112 -54 -14 -21 -20 -24 -31 -15 -8 7 -29 9 -48 6 -24 -4
-36 -1 -40 9 -3 8 -19 22 -37 33 l-31 19 23 13 c13 7 27 12 32 11 4 -1 7 2 7
8 0 26 -93 50 -134 34 -22 -8 -20 -27 2 -22 9 2 27 -7 39 -19 l22 -23 -55 0
-55 0 3 53 3 52 88 0 c55 0 86 3 84 10 -4 13 -80 33 -128 34 l-36 1 5 98 c2
53 11 109 19 125 18 36 24 34 12 -5 -5 -17 -6 -48 -3 -67 3 -20 1 -56 -4 -80
-7 -29 -7 -40 0 -33 5 5 13 50 17 98 11 135 37 168 122 161 29 -2 71 2 93 9
60 19 110 17 128 -3z m338 -495 c0 -49 14 -64 25 -28 11 34 25 11 25 -41 0
-45 -2 -49 -24 -49 -19 0 -27 -8 -37 -37 -45 -142 -122 -230 -254 -293 -144
-69 -192 -65 -266 19 -44 49 -129 187 -129 208 0 7 9 13 20 13 12 0 33 6 49
14 29 15 47 16 69 3 7 -5 12 -3 12 6 0 21 -12 28 -27 16 -18 -16 -16 -7 9 46
20 41 18 78 -2 45 -8 -13 -10 -13 -10 1 0 24 25 41 56 37 23 -3 27 -8 29 -40
1 -20 9 -48 19 -62 14 -22 14 -26 2 -26 -16 0 -31 -18 -23 -26 3 -3 14 -1 26
5 16 9 27 7 53 -9 38 -23 120 -27 156 -6 33 18 62 66 62 103 0 23 6 33 19 38
23 7 121 111 121 128 0 7 4 6 10 -3 5 -8 10 -36 10 -62z m-612 -14 c12 -8 20
-20 16 -25 -4 -6 -12 -4 -23 5 -9 8 -28 19 -41 25 l-25 10 25 0 c14 1 36 -6
48 -15z m402 -46 c0 -23 -16 -24 -23 0 -2 9 -8 26 -13 37 -7 20 -7 20 14 1 12
-11 22 -27 22 -38z m-380 -33 c0 -8 -4 -15 -10 -15 -5 0 -10 7 -10 15 0 8 5
15 10 15 6 0 10 -7 10 -15z m370 -24 c0 -6 -4 -13 -10 -16 -5 -3 -10 1 -10 9
0 9 5 16 10 16 6 0 10 -4 10 -9z m256 -58 c-22 -60 -48 -115 -79 -160 -34 -53
-57 -115 -56 -157 0 -25 4 -18 20 32 11 35 22 62 24 60 2 -2 1 -37 -2 -77 l-6
-74 -52 -23 c-93 -43 -273 -54 -372 -23 -37 12 -37 10 -22 62 11 41 12 42 41
26 54 -29 180 5 297 81 70 45 147 147 176 234 11 31 25 56 32 56 9 0 9 -8 -1
-37z m-915 -261 c-23 -86 -27 -194 -11 -237 8 -20 7 -26 -2 -23 -17 6 -36 73
-37 129 -1 38 22 122 54 202 17 41 15 4 -4 -71z m842 -139 c5 -9 -13 -117 -33
-200 l-13 -52 -71 -15 c-106 -22 -181 -26 -268 -15 -71 9 -155 36 -183 59 -17
14 65 180 85 174 121 -41 364 -21 432 36 24 20 44 25 51 13z"/>
<path d="M1280 1833 c-57 -8 -110 -26 -122 -41 -11 -13 -8 -14 27 -8 22 3 86
9 143 12 67 4 102 10 99 18 -7 20 -79 30 -147 19z"/>
<path d="M1021 1785 c0 -5 6 -37 13 -70 l14 -60 1 51 c1 30 -5 58 -14 70 -8
10 -14 15 -14 9z"/>
<path d="M1058 1392 c-42 -8 -78 -34 -78 -58 0 -43 53 -84 107 -84 36 1 103
31 127 59 20 22 20 22 -11 52 -32 33 -78 42 -145 31z"/>
<path d="M590 163 c-7 -16 -15 -58 -18 -95 -4 -59 -2 -68 12 -68 14 0 16 6 11
34 -4 19 -2 60 5 91 13 64 10 78 -10 38z"/>
<path d="M2040 154 c0 -17 -3 -59 -6 -93 -6 -52 -5 -61 10 -61 13 0 16 12 16
78 0 42 -5 84 -10 92 -7 11 -10 8 -10 -16z"/>
</g>
</svg>
